<svg xmlns="http://www.w3.org/2000/svg" width="512" height="512" viewBox="0 0 512 512">
  <rect width="512" height="512" rx="0" fill="#ffffff"/>
  <g transform="translate(256 262) scale(0.66) translate(-256 -262)">
<rect x="232" y="236" width="48" height="246" rx="24" fill="#2323c7"/><g transform="translate(256 232) rotate(-166) scale(0.82)"><path d="M0 0 C 55 -50 150 -48 214 -18 C 150 6 70 18 0 0 Z" fill="#249021"/></g><g transform="translate(256 232) rotate(-128) scale(0.96)"><path d="M0 0 C 55 -50 150 -48 214 -18 C 150 6 70 18 0 0 Z" fill="#2fa82d"/></g><g transform="translate(256 232) rotate(-90) scale(1.08)"><path d="M0 0 C 55 -50 150 -48 214 -18 C 150 6 70 18 0 0 Z" fill="#2fa82d"/><path d="M14 -3 L 70 -23 L 58 -16 L 130 -31 L 116 -24 L 205 -17" fill="none" stroke="#ffffff" stroke-width="9" stroke-linecap="round" stroke-linejoin="round"/></g><g transform="translate(256 232) rotate(-52) scale(1.02)"><path d="M0 0 C 55 -50 150 -48 214 -18 C 150 6 70 18 0 0 Z" fill="#2fa82d"/></g><g transform="translate(256 232) rotate(-14) scale(0.86)"><path d="M0 0 C 55 -50 150 -48 214 -18 C 150 6 70 18 0 0 Z" fill="#249021"/></g>
  </g>
</svg>
